# xmcd
#
# Track frame offsets:
#	150
#	22512
#	38992
#	41882
#	57617
#	74475
#	90167
#	104827
#	123515
#	146957
#	162047
#	182887
#	204222
#	219837
#	241165
#	266227
#
# Disc length: 3791 seconds
#
# Revision: 0
# Processed by: cddbd v1.5.1PL2 Copyright (c) Steve Scherf et al.
# Submitted via: dBpowerAMP V4.0
#
DISCID=e80ecd10
DTITLE=Jon Chandler - Westerns
DYEAR=1900
DGENRE=Country
TTITLE0=He Was No Hero
TTITLE1=The Spanish Peaks
TTITLE2=The Mustang Roan
TTITLE3=Nancy's Eyes
TTITLE4=Pineywood Mountains
TTITLE5=Wagon Wheel Gap
TTITLE6=Lady's Got Blues (In Her Eyes)
TTITLE7=Snow Sky
TTITLE8=Tiny Promises
TTITLE9=The Dreams Die Hard
TTITLE10=The Plain of Ilium
TTITLE11=A Cowboy's Christmas
TTITLE12=Whisper His Name
TTITLE13=Crazy Woman Creek
TTITLE14=Forevermore
TTITLE15=The Spanish Peaks (Reprise)
EXTD=Jon Chandler - Westerns
EXTT0=
EXTT1=
EXTT2=
EXTT3=
EXTT4=
EXTT5=
EXTT6=
EXTT7=
EXTT8=
EXTT9=
EXTT10=
EXTT11=
EXTT12=
EXTT13=
EXTT14=
EXTT15=
PLAYORDER=
